#!OML:ASF E:\acrobat2\Project_11_07_03\Capture day 1\Session 1\Acrobat.ASF
:FULLY-SPECIFIED
:DEGREES
136
root 6.93601 17.6381 -29.7229 -178.643 -3.68294 -179.248
lowerback -2.19081 -0.829088 -2.49564
upperback -1.10583 -1.08338 0.698574
thorax 0.153584 -0.541999 2.08989
lowerneck 2.05504 0.100004 -3.50976
upperneck -3.33754 0.124805 3.96987
head -1.4034 0.0258849 1.85084
rclavicle 5.12492e-015 2.6339e-015
rhumerus -39.2058 3.00858 -81.6561
rradius 25.2186
rwrist -0.0832381
rhand -4.69535 -33.3037
rfingers 7.12502
rthumb 21.0861 -62.1772
lclavicle 5.12492e-015 2.6339e-015
lhumerus -33.9953 -4.25883 86.0815
lradius 21.5632
lwrist 11.5431
lhand -11.0111 -9.76653
lfingers 7.12502
lthumb 15.0098 19.6694
rfemur -0.993598 8.51233 23.5248
rtibia 22.2941
rfoot -25.9783 -12.7761
rtoes -15.6774
lfemur -6.48926 7.06055 -19.7131
ltibia 22.9318
lfoot -5.89164 -19.2547
ltoes 23.7043
137
root 6.93492 17.6422 -29.7251 -178.659 -3.64657 -179.221
lowerback -2.14522 -0.804999 -2.44412
upperback -1.18433 -1.05614 0.699376
thorax 0.0451948 -0.527158 2.06389
lowerneck 2.08597 0.13226 -3.63641
upperneck -3.29778 0.16693 4.12067
head -1.39979 0.0456798 1.92189
rclavicle 5.59703e-015 -2.08724e-015
rhumerus -39.2327 2.97469 -81.6523
rradius 25.2221
rwrist -0.202551
rhand -4.51385 -33.4352
rfingers 7.12502
rthumb 21.2604 -62.2891
lclavicle 5.59703e-015 -2.08724e-015
lhumerus -34.1412 -4.56952 86.3546
lradius 21.6276
lwrist 11.7224
lhand -11.1192 -9.88385
lfingers 7.12502
lthumb 14.9056 19.5599
rfemur -1.00614 8.68089 23.5535
rtibia 22.3161
rfoot -26.0428 -12.826
rtoes -15.2569
lfemur -6.44493 7.12338 -19.6759
ltibia 22.9189
lfoot -5.70096 -19.3517
ltoes 24.6042
138
root 6.93439 17.6374 -29.7253 -178.761 -3.62998 -179.206
lowerback -2.01148 -0.821767 -2.44744
upperback -1.23781 -1.08303 0.717589
thorax -0.0826629 -0.538606 2.0864
lowerneck 2.1893 0.186163 -3.64125
upperneck -3.30853 0.236626 4.10754
head -1.42429 0.0801772 1.9179
rclavicle 1.69215e-014 2.5345e-015
rhumerus -39.236 3.03861 -81.6788
rradius 25.1749
rwrist -0.330876
rhand -4.90236 -33.2477
rfingers 7.12502
rthumb 20.8872 -62.1432
lclavicle 1.69215e-014 2.5345e-015
lhumerus -34.2322 -4.81918 86.6028
lradius 21.6677
lwrist 11.9903
lhand -11.0983 -9.89125
lfingers 7.12502
lthumb 14.9258 19.551
rfemur -0.911228 8.64071 23.5826
rtibia 22.3608
rfoot -26.0816 -12.8098
rtoes -15.3313
lfemur -6.31407 7.20568 -19.6395
ltibia 22.8986
lfoot -5.43441 -19.4647
ltoes 25.7706
139
root 6.93355 17.6261 -29.7257 -179.001 -3.61629 -179.217
lowerback -1.77847 -0.869917 -2.49985
upperback -1.22309 -1.15016 0.734926
thorax -0.193046 -0.569669 2.1359
lowerneck 2.22579 0.268157 -3.52174
upperneck -3.28762 0.347104 4.03937
head -1.42724 0.134883 1.87215
rclavicle -2.4991e-014 -3.23025e-015
rhumerus -39.192 3.12094 -81.7232
rradius 25.1278
rwrist -0.350346
rhand -5.08769 -33.1471
rfingers 7.12502
rthumb 20.7092 -62.0622
lclavicle -2.4991e-014 -3.23025e-015
lhumerus -34.2347 -5.00063 86.7963
lradius 21.6218
lwrist 12.2463
lhand -11.1264 -9.98448
lfingers 7.12502
lthumb 14.8988 19.4597
rfemur -0.616207 8.35092 23.5996
rtibia 22.427
rfoot -26.0932 -12.706
rtoes -15.9538
lfemur -6.01799 7.26411 -19.6185
ltibia 22.8573
lfoot -5.496 -19.4702
ltoes 25.3728
140
root 6.93019 17.624 -29.726 -179.098 -3.54632 -179.205
lowerback -1.71861 -0.887356 -2.48857
upperback -1.21619 -1.17448 0.74766
thorax -0.218082 -0.581366 2.14314
lowerneck 2.13181 0.28976 -3.41332
upperneck -3.21678 0.37889 3.98919
head -1.38815 0.151226 1.83474
rclavicle 4.67455e-015 1.2424e-015
rhumerus -39.1696 3.21242 -81.772
rradius 25.1844
rwrist -0.341454
rhand -5.10374 -33.1619
rfingers 7.12502
rthumb 20.6937 -62.0786
lclavicle 4.67455e-015 1.2424e-015
lhumerus -34.1042 -5.03882 86.9132
lradius 21.4346
lwrist 12.2698
lhand -11.1803 -10.1381
lfingers 7.12502
lthumb 14.8468 19.31
rfemur -0.554878 8.40706 23.6041
rtibia 22.4459
rfoot -26.0516 -12.6799
rtoes -15.676
lfemur -5.89958 7.23012 -19.6067
ltibia 22.8782
lfoot -5.63946 -19.4036
ltoes 25.2056
141
root 6.92713 17.6205 -29.7281 -179.303 -3.46201 -179.189
lowerback -1.61996 -0.885025 -2.47251
upperback -1.14443 -1.17081 0.754745
thorax -0.200071 -0.579501 2.14236
lowerneck 2.30638 0.359839 -3.37259
upperneck -3.43639 0.471499 3.9436
head -1.4921 0.195078 1.81348
rclavicle 3.11533e-015 -2.48481e-015
rhumerus -39.1314 3.23721 -81.8048
rradius 25.2754
rwrist -0.309466
rhand -5.25376 -33.129
rfingers 7.12502
rthumb 20.5496 -62.0613
lclavicle 3.11533e-015 -2.48481e-015
lhumerus -33.9377 -5.04368 87.0108
lradius 21.2631
lwrist 12.256
lhand -11.1612 -10.2048
lfingers 7.12502
lthumb 14.8652 19.2419
rfemur -0.328876 8.48805 23.6439
rtibia 22.462
rfoot -26.0707 -12.6394
rtoes -15.5066
lfemur -5.64414 7.15513 -19.5695
ltibia 22.8884
lfoot -5.49828 -19.4409
ltoes 26.5095
142
root 6.92574 17.6106 -29.7287 -179.511 -3.40919 -179.204
lowerback -1.48549 -0.884856 -2.50136
upperback -1.07707 -1.17041 0.755827
thorax -0.205739 -0.578689 2.16123
lowerneck 2.27706 0.337425 -3.24012
upperneck -3.53349 0.441867 3.74644
head -1.51398 0.182115 1.72695
rclavicle -1.35422e-015 1.98785e-016
rhumerus -39.0578 3.2436 -81.8251
rradius 25.3386
rwrist -0.335008
rhand -5.39688 -33.1468
rfingers 7.12502
rthumb 20.412 -62.0939
lclavicle -1.35422e-015 1.98785e-016
lhumerus -33.9001 -5.22971 87.197
lradius 21.2898
lwrist 12.4514
lhand -11.154 -10.0476
lfingers 7.12502
lthumb 14.8721 19.3986
rfemur -0.0628746 8.40264 23.6582
rtibia 22.4721
rfoot -26.0675 -12.5722
rtoes -15.7948
lfemur -5.39425 7.15045 -19.5571
ltibia 22.9009
lfoot -5.34241 -19.5244
ltoes 27.4501
143
root 6.9247 17.6152 -29.7273 -179.449 -3.38687 -179.2
lowerback -1.54271 -0.869421 -2.4858
upperback -1.1114 -1.15011 0.75259
thorax -0.210394 -0.568714 2.14888
lowerneck 2.12611 0.269384 -3.13464
upperneck -3.49109 0.352494 3.60206
head -1.4684 0.140175 1.66205
rclavicle -5.00068e-015 3.18055e-015
rhumerus -39.0385 3.20242 -81.8256
rradius 25.4349
rwrist -0.384576
rhand -5.51296 -33.0647
rfingers 7.12502
rthumb 20.3005 -62.0238
lclavicle -5.00068e-015 3.18055e-015
lhumerus -33.8856 -5.49499 87.4065
lradius 21.359
lwrist 12.6582
lhand -11.2025 -10.0398
lfingers 7.12502
lthumb 14.8254 19.4098
rfemur -0.210983 8.56908 23.6486
rtibia 22.495
rfoot -26.0833 -12.6232
rtoes -15.4584
lfemur -5.47386 7.21978 -19.5617
ltibia 22.9074
lfoot -5.45318 -19.4773
ltoes 26.6615
144
root 6.92425 17.6108 -29.7263 -179.52 -3.37307 -179.225
lowerback -1.55949 -0.855538 -2.50756
upperback -1.04355 -1.1286 0.739914
thorax -0.132463 -0.558951 2.14746
lowerneck 2.07394 0.231603 -3.23514
upperneck -3.58974 0.304186 3.75927
head -1.49102 0.113399 1.73236
rclavicle 2.17234e-014 1.2424e-015
rhumerus -38.9306 3.15491 -81.8336
rradius 25.4826
rwrist -0.436205
rhand -5.51522 -32.9493
rfingers 7.12502
rthumb 20.2983 -61.9086
lclavicle 2.17234e-014 1.2424e-015
lhumerus -33.6837 -5.58954 87.5116
lradius 21.301
lwrist 12.6493
lhand -11.3191 -10.3418
lfingers 7.12502
lthumb 14.7131 19.1161
rfemur -0.11347 8.52305 23.6268
rtibia 22.4973
rfoot -26.1117 -12.5507
rtoes -15.5761
lfemur -5.42164 7.31418 -19.5773
ltibia 22.938
lfoot -5.60044 -19.4624
ltoes 25.7042
145
root 6.92496 17.6042 -29.7276 -179.659 -3.38109 -179.242
lowerback -1.30654 -0.84316 -2.52997
upperback -1.14577 -1.12033 0.727406
thorax -0.379273 -0.55066 2.15249
lowerneck 2.35067 0.228184 -3.30807
upperneck -3.69952 0.297083 3.88784
head -1.57642 0.105738 1.78976
rclavicle -1.30546e-014 4.47266e-015
rhumerus -39.1093 3.18737 -81.8842
rradius 25.4503
rwrist -0.505518
rhand -5.455 -32.8459
rfingers 7.12502
rthumb 20.3562 -61.799
lclavicle -1.30546e-014 4.47266e-015
lhumerus -33.833 -5.65538 87.6078
lradius 21.3137
lwrist 12.5893
lhand -11.3523 -10.4065
lfingers 7.12502
lthumb 14.6811 19.0538
rfemur 0.0517619 8.2467 23.637
rtibia 22.5467
rfoot -25.9857 -12.6226
rtoes -17.1658
lfemur -5.21521 7.2925 -19.5729
ltibia 22.8975
lfoot -5.48137 -19.5
ltoes 26.5441
146
root 6.92468 17.6023 -29.7291 -179.707 -3.36991 -179.246
lowerback -1.22707 -0.867365 -2.56186
upperback -1.20383 -1.156 0.739604
thorax -0.480522 -0.566659 2.18445
lowerneck 2.48648 0.245056 -3.28953
upperneck -3.79286 0.317528 3.84528
head -1.6308 0.115201 1.77377
rclavicle 8.14707e-015 4.02539e-015
rhumerus -39.1621 3.3544 -81.9855
rradius 25.4564
rwrist -0.650972
rhand -5.50876 -32.7765
rfingers 7.12502
rthumb 20.3045 -61.7351
lclavicle 8.14707e-015 4.02539e-015
lhumerus -33.9295 -5.64101 87.6738
lradius 21.3926
lwrist 12.6202
lhand -11.2297 -10.2401
lfingers 7.12502
lthumb 14.7992 19.2115
rfemur 0.0659769 8.63477 23.6671
rtibia 22.6098
rfoot -26.2909 -12.602
rtoes -15.5627
lfemur -5.10928 7.18505 -19.5753
ltibia 22.8477
lfoot -5.39903 -19.4371
ltoes 27.4305
147
root 6.92283 17.6096 -29.7311 -179.718 -3.322 -179.226
lowerback -1.19504 -0.873763 -2.5302
upperback -1.24239 -1.16683 0.739108
thorax -0.538003 -0.571447 2.16702
lowerneck 2.41497 0.225711 -3.25733
upperneck -3.77737 0.292461 3.80012
head -1.61153 0.103716 1.7533
rclavicle 7.79609e-016 -2.38542e-015
rhumerus -39.1843 3.44648 -82.0781
rradius 25.5189
rwrist -0.76427
rhand -5.48499 -32.8668
rfingers 7.12502
rthumb 20.3274 -61.823
lclavicle 7.79609e-016 -2.38542e-015
lhumerus -33.9592 -5.641 87.7136
lradius 21.4064
lwrist 12.5783
lhand -11.1668 -10.2621
lfingers 7.12502
lthumb 14.8598 19.185
rfemur -0.00669546 8.71158 23.6874
rtibia 22.6918
rfoot -26.2727 -12.6728
rtoes -15.9136
lfemur -5.04417 7.12396 -19.5623
ltibia 22.7669
lfoot -5.48126 -19.3564
ltoes 27.2584
148
root 6.9198 17.6154 -29.7282 -179.555 -3.27082 -179.212
lowerback -1.32828 -0.867676 -2.48286
upperback -1.31123 -1.15918 0.738006
thorax -0.535317 -0.568496 2.13788
lowerneck 2.35698 0.234122 -3.29279
upperneck -3.76197 0.30429 3.83426
head -1.59731 0.109791 1.77004
rclavicle 3.38555e-015 5.36719e-015
rhumerus -39.1384 3.48526 -82.1288
rradius 25.5297
rwrist -0.749455
rhand -5.19078 -33.1844
rfingers 7.12502
rthumb 20.6101 -62.1102
lclavicle 3.38555e-015 5.36719e-015
lhumerus -33.9204 -5.67637 87.772
lradius 21.3801
lwrist 12.4612
lhand -11.1944 -10.4416
lfingers 7.12502
lthumb 14.8332 19.0074
rfemur -0.350684 8.81563 23.6547
rtibia 22.7485
rfoot -26.1025 -12.8296
rtoes -16.357
lfemur -5.19504 7.07612 -19.5875
ltibia 22.6994
lfoot -5.47396 -19.2931
ltoes 27.5175
149
root 6.92011 17.6097 -29.729 -179.756 -3.2939 -179.218
lowerback -1.10853 -0.876439 -2.50993
upperback -1.30625 -1.17456 0.748938
thorax -0.651738 -0.573692 2.16786
lowerneck 2.45207 0.270946 -3.41409
upperneck -3.77144 0.351787 3.96751
head -1.62121 0.131774 1.8348
rclavicle -8.47941e-016 3.97569e-016
rhumerus -39.1511 3.53018 -82.163
rradius 25.5258
rwrist -0.65787
rhand -4.97782 -33.3614
rfingers 7.12502
rthumb 20.8147 -62.2649
lclavicle -8.47941e-016 3.97569e-016
lhumerus -33.9586 -5.70271 87.8603
lradius 21.4116
lwrist 12.4039
lhand -11.2013 -10.4471
lfingers 7.12502
lthumb 14.8265 19.0024
rfemur -0.0738996 8.65844 23.6922
rtibia 22.7839
rfoot -26.1359 -12.8228
rtoes -16.9682
lfemur -4.96267 7.15868 -19.5599
ltibia 22.6568
lfoot -5.41627 -19.3373
ltoes 27.445
150
root 6.92053 17.6085 -29.7316 -179.907 -3.30717 -179.198
lowerback -0.965857 -0.876616 -2.49688
upperback -1.30618 -1.17755 0.756663
thorax -0.73153 -0.57376 2.17092
lowerneck 2.46575 0.262435 -3.37513
upperneck -3.70792 0.339551 3.90975
head -1.60188 0.126946 1.80872
rclavicle -1.38839e-014 -1.68967e-015
rhumerus -39.197 3.54016 -82.2105
rradius 25.5524
rwrist -0.638756
rhand -4.96881 -33.3704
rfingers 7.12502
rthumb 20.8234 -62.2729
lclavicle -1.38839e-014 -1.68967e-015
lhumerus -34.0074 -5.77064 87.9488
lradius 21.494
lwrist 12.5163
lhand -11.1364 -10.3189
lfingers 7.12502
lthumb 14.8891 19.126
rfemur 0.107668 8.56202 23.7501
rtibia 22.7839
rfoot -26.0256 -12.9039
rtoes -17.8441
lfemur -4.80738 7.23601 -19.5066
ltibia 22.6634
lfoot -5.51089 -19.3568
ltoes 26.6668
